<svg width="100" height="100" viewBox="0 0 100 100" fill="none" xmlns="http://www.w3.org/2000/svg">
<path d="M67.0544 33.8229C67.1373 33.8787 67.2201 33.9327 67.2991 33.9924C67.2201 33.9327 67.1373 33.8787 67.0544 33.8229Z" fill="url(#paint0_linear)"/>
<path d="M66.6846 33.5821C66.621 33.5455 66.5555 33.5166 66.4919 33.4819C66.5805 33.5301 66.6692 33.5763 66.7558 33.6283C66.7308 33.6129 66.7077 33.5956 66.6846 33.5821Z" fill="url(#paint1_linear)"/>
<path d="M60.3435 33.453C60.4437 33.401 60.5361 33.349 60.644 33.3008C60.5419 33.349 60.4417 33.401 60.3435 33.453Z" fill="url(#paint2_linear)"/>
<path d="M60.9618 33.166C61.0485 33.1313 61.1352 33.0967 61.2238 33.0659C61.1352 33.0967 61.0485 33.1313 60.9618 33.166Z" fill="url(#paint3_linear)"/>
<path d="M59.2878 34.1484C59.3668 34.0848 59.4458 34.0193 59.5286 33.9558C59.4516 34.0174 59.3668 34.0848 59.2878 34.1484Z" fill="url(#paint4_linear)"/>
<path d="M67.9713 34.5741C68.0734 34.6742 68.1755 34.7667 68.2699 34.8823C68.1755 34.7763 68.0734 34.6742 67.9713 34.5741Z" fill="url(#paint5_linear)"/>
<path d="M59.7772 33.7901C59.8755 33.7246 59.9698 33.6591 60.0777 33.5975C59.9756 33.6649 59.8755 33.7246 59.7772 33.7901Z" fill="url(#paint6_linear)"/>
<path d="M67.5417 34.1869C67.6323 34.2601 67.7228 34.3333 67.8095 34.4123C67.7209 34.3333 67.6304 34.2601 67.5417 34.1869Z" fill="url(#paint7_linear)"/>
<path d="M64.6332 32.8154C64.7603 32.8405 64.8894 32.8694 65.0184 32.9002C64.8874 32.8675 64.7603 32.8405 64.6332 32.8154Z" fill="url(#paint8_linear)"/>
<path d="M61.5878 32.9503C61.6667 32.9291 61.7438 32.906 61.8228 32.8867C61.7438 32.906 61.6667 32.9291 61.5878 32.9503Z" fill="url(#paint9_linear)"/>
<path d="M63.4197 32.7018C63.5295 32.7018 63.6373 32.7018 63.7471 32.7114C63.6373 32.7018 63.5295 32.7018 63.4197 32.7018Z" fill="url(#paint10_linear)"/>
<path d="M62.8167 32.723C62.9091 32.7134 63.0093 32.7076 63.094 32.7018C62.9996 32.7018 62.9187 32.7134 62.8167 32.723Z" fill="url(#paint11_linear)"/>
<path d="M65.2495 32.9676C65.3709 33.0042 65.4941 33.0427 65.6136 33.0851C65.4922 33.0427 65.3709 33.0042 65.2495 32.9676Z" fill="url(#paint12_linear)"/>
<path d="M65.8737 33.1891C65.9796 33.2315 66.0855 33.2758 66.1896 33.3259C66.0855 33.2797 65.9796 33.2315 65.8737 33.1891Z" fill="url(#paint13_linear)"/>
<path d="M62.2061 32.8058C62.287 32.7904 62.3679 32.775 62.4468 32.7634L62.2061 32.8058Z" fill="url(#paint14_linear)"/>
<path d="M68.7533 35.5006C68.8535 35.6451 68.9459 35.7934 69.0403 35.9494C68.9517 35.7953 68.8554 35.647 68.7533 35.5006Z" fill="url(#paint15_linear)"/>
<path d="M57.7719 35.8974C57.7719 35.9109 57.7565 35.9205 57.7488 35.9321L50.9608 47.5703L56.4948 57.3131C57.3722 58.8579 57.607 60.6858 57.1486 62.4022C56.6902 64.1186 55.5754 65.586 54.0447 66.4877C53.2569 66.9523 52.38 67.2457 51.4713 67.3487C52.488 67.2411 53.4652 66.8957 54.3238 66.3406C55.1824 65.7854 55.8984 65.0361 56.4139 64.1531L63.3329 52.2934L57.718 42.4658C57.1453 41.464 56.8485 40.3282 56.858 39.1743C56.8675 38.0204 57.1829 36.8897 57.7719 35.8974V35.8974Z" fill="url(#paint16_linear)"/>
<path d="M58.0609 35.4544L58.1341 35.3484L58.0609 35.4544Z" fill="url(#paint17_linear)"/>
<path d="M68.3719 35.0133C68.4798 35.1404 68.5838 35.2675 68.6821 35.3985C68.5858 35.2617 68.4798 35.1327 68.3719 35.0133Z" fill="url(#paint18_linear)"/>
<path d="M51.3404 67.3738C51.244 67.3834 51.1477 67.3872 51.0533 67.393C51.1477 67.3738 51.244 67.3738 51.3404 67.3738Z" fill="url(#paint19_linear)"/>
<path d="M58.8525 34.5336C58.9065 34.4797 58.9604 34.4238 59.0182 34.3718C58.9604 34.4238 58.9065 34.4797 58.8525 34.5336Z" fill="url(#paint20_linear)"/>
<path d="M64.0244 32.7268C64.1477 32.7403 64.269 32.7538 64.3923 32.7731C64.2671 32.7538 64.1477 32.7384 64.0244 32.7268Z" fill="url(#paint21_linear)"/>
<path d="M58.4462 34.9612C58.4828 34.9208 58.5155 34.8784 58.5502 34.838C58.5155 34.8784 58.4885 34.9208 58.4462 34.9612Z" fill="url(#paint22_linear)"/>
<path d="M91.7582 33.6861C91.0173 33.2536 90.1984 32.9713 89.3483 32.8555C88.4982 32.7396 87.6336 32.7924 86.804 33.0108C85.9743 33.2292 85.1958 33.609 84.513 34.1284C83.8301 34.6478 83.2563 35.2967 82.8244 36.038L75.89 47.9286L81.4915 57.7311C82.3507 59.2357 82.5773 61.02 82.1215 62.6916C81.6657 64.3633 80.5647 65.7855 79.0606 66.6456C78.868 66.7516 78.6869 66.8383 78.4962 66.9307C79.7521 66.3784 80.8007 65.4425 81.4915 64.2571L94.1101 42.6218C94.9832 41.125 95.2259 39.3426 94.7848 37.6669C94.3438 35.9911 93.2551 34.5592 91.7582 33.6861V33.6861Z" fill="url(#paint23_linear)"/>
<path d="M78.3883 66.975C78.2458 67.0367 78.0994 67.0925 77.953 67.1426C78.1013 67.0925 78.2458 67.0367 78.3883 66.975Z" fill="url(#paint24_linear)"/>
<path d="M77.6698 67.2332L77.4021 67.3063L77.6698 67.2332Z" fill="url(#paint25_linear)"/>
<path d="M76.9803 67.3969L76.8435 67.42L76.9803 67.3969Z" fill="url(#paint26_linear)"/>
<path d="M81.4895 57.7311L75.888 47.9286L69.0615 35.9764C69.0615 35.9629 69.0461 35.9533 69.0403 35.9417C68.9498 35.7857 68.8477 35.6374 68.7533 35.4929L68.682 35.3889C68.5838 35.2521 68.4798 35.125 68.3719 35.0036C68.3372 34.9632 68.3045 34.9189 68.2698 34.8803C68.1754 34.7725 68.0772 34.6723 67.9713 34.5722C67.9173 34.5182 67.8634 34.4624 67.8075 34.4104C67.7209 34.3314 67.6303 34.2582 67.5398 34.185C67.4493 34.1118 67.3818 34.0521 67.299 33.9924C67.2162 33.9326 67.1372 33.8787 67.0544 33.8229C66.9716 33.767 66.8618 33.688 66.7539 33.6302C66.646 33.5724 66.5786 33.532 66.49 33.4838C66.4014 33.4357 66.2974 33.376 66.1895 33.3278C66.0816 33.2797 65.9795 33.2334 65.8736 33.1911C65.7677 33.1487 65.7002 33.1198 65.6136 33.087C65.4941 33.0447 65.3709 33.0061 65.2495 32.9695L65.0145 32.8944C64.8893 32.8636 64.7603 32.8347 64.6293 32.8097C64.5484 32.7943 64.4694 32.7788 64.3885 32.7673C64.2652 32.748 64.1439 32.7345 64.0206 32.7211L63.7471 32.7018C63.6373 32.7018 63.5294 32.7018 63.4196 32.6922C63.3098 32.6825 63.2019 32.6922 63.0941 32.6922C62.9862 32.6922 62.9014 32.7037 62.8167 32.7134C62.6883 32.7223 62.565 32.7358 62.4469 32.7538C62.3679 32.7654 62.287 32.7808 62.2061 32.7962C62.079 32.8193 61.9499 32.8463 61.8208 32.8771C61.7419 32.8963 61.6648 32.9195 61.5858 32.9406C61.4645 32.9772 61.3431 33.0138 61.2218 33.0562C61.1332 33.087 61.0465 33.1217 60.9598 33.1564C60.8731 33.1911 60.7479 33.2431 60.642 33.2912C60.536 33.3394 60.4494 33.3914 60.3415 33.4434C60.276 33.4781 60.2105 33.507 60.1489 33.5436C60.1238 33.557 60.1026 33.5744 60.0776 33.5879C59.9736 33.6495 59.8754 33.715 59.7771 33.7805C59.6789 33.846 59.6095 33.8903 59.5286 33.9481C59.4477 34.0058 59.3668 34.0752 59.2879 34.1407C59.2089 34.2062 59.1049 34.2871 59.0182 34.3641C58.9315 34.4412 58.9065 34.472 58.8525 34.5259C58.7485 34.6261 58.6464 34.7185 58.5501 34.8303C58.5154 34.8707 58.4827 34.9131 58.4461 34.9535C58.3382 35.0807 58.2323 35.2078 58.1341 35.3388L58.0609 35.4447C57.9588 35.5892 57.8682 35.7356 57.7719 35.8878C57.1828 36.88 56.8675 38.0108 56.858 39.1647C56.8485 40.3186 57.1453 41.4544 57.718 42.4562L63.3329 52.2799L70.144 64.2013C70.7522 65.2658 71.6479 66.1375 72.7285 66.7166C73.809 67.2957 75.0308 67.5589 76.254 67.4759H76.2925C76.4736 67.4643 76.6547 67.4431 76.8357 67.4142L76.9725 67.3911C77.117 67.3661 77.2595 67.3352 77.402 67.3006L77.6698 67.2274C77.7642 67.1985 77.8624 67.1696 77.9529 67.1368C78.0993 67.0868 78.2457 67.0309 78.3883 66.9693L78.4942 66.925C78.6868 66.8383 78.8795 66.7458 79.0586 66.6399C80.5611 65.7797 81.661 64.3586 82.1167 62.6883C82.5725 61.018 82.3469 59.2352 81.4895 57.7311Z" fill="#237698"/>
<path d="M56.4949 57.3131L50.9608 47.5703L44.3327 35.9032C44.3173 35.8743 44.3 35.8473 44.2826 35.8184C43.6996 34.8242 42.8645 34.0014 41.8617 33.4332C40.8589 32.865 39.7239 32.5715 38.5714 32.5824V32.5824L22.8842 32.5092C22.2384 32.5256 21.6244 32.7933 21.1729 33.2554C20.7213 33.7175 20.4679 34.3375 20.4664 34.9836C20.4649 35.6296 20.7154 36.2508 21.1648 36.715C21.6142 37.1792 22.2269 37.4497 22.8727 37.4692L27.4571 37.4904C27.7885 37.4828 28.1181 37.5418 28.4264 37.6637C28.7347 37.7857 29.0154 37.9682 29.252 38.2005C29.4885 38.4328 29.6761 38.7102 29.8037 39.0162C29.9312 39.3222 29.9962 39.6507 29.9946 39.9823C29.9931 40.3138 29.9251 40.6417 29.7947 40.9465C29.6643 41.2513 29.4741 41.5269 29.2354 41.757C28.9967 41.9871 28.7143 42.167 28.4049 42.2861C28.0955 42.4052 27.7653 42.461 27.434 42.4504L12.3728 42.383C12.046 42.3815 11.7221 42.4443 11.4196 42.568C11.1171 42.6917 10.8419 42.8737 10.6097 43.1037C10.3775 43.3337 10.1929 43.6072 10.0665 43.9086C9.94 44.21 9.87413 44.5333 9.87261 44.8601C9.87109 45.1869 9.93396 45.5108 10.0576 45.8134C10.1813 46.1159 10.3633 46.3911 10.5934 46.6232C10.8234 46.8554 11.0969 47.04 11.3982 47.1665C11.6996 47.2929 12.0229 47.3588 12.3497 47.3603L35.6011 47.4643C35.9326 47.4568 36.2622 47.5157 36.5705 47.6377C36.8788 47.7597 37.1595 47.9422 37.396 48.1745C37.6326 48.4068 37.8202 48.6842 37.9477 48.9902C38.0753 49.2962 38.1402 49.6247 38.1387 49.9562C38.1371 50.2878 38.0692 50.6156 37.9388 50.9205C37.8084 51.2253 37.6182 51.5009 37.3795 51.731C37.1408 51.961 36.8584 52.141 36.549 52.26C36.2395 52.3791 35.9094 52.435 35.578 52.4244L19.2783 52.3492C18.9515 52.3477 18.6276 52.4106 18.3251 52.5343C18.0226 52.6579 17.7474 52.84 17.5152 53.07C17.0463 53.5345 16.7812 54.1663 16.7781 54.8264C16.775 55.4864 17.0343 56.1206 17.4989 56.5895C17.9634 57.0584 18.5952 57.3235 19.2552 57.3266L26.4766 57.3593C26.8081 57.3516 27.1377 57.4104 27.4461 57.5323C27.7545 57.6541 28.0353 57.8365 28.2719 58.0688C28.5086 58.301 28.6963 58.5783 28.824 58.8842C28.9517 59.1902 29.0167 59.5187 29.0153 59.8502C29.0139 60.1818 28.946 60.5097 28.8157 60.8146C28.6854 61.1195 28.4954 61.3951 28.2567 61.6253C28.0181 61.8555 27.7357 62.0355 27.4264 62.1547C27.117 62.2739 26.7868 62.3299 26.4554 62.3194L7.42438 62.2346C6.77836 62.2494 6.16357 62.5156 5.71081 62.9766C5.25805 63.4377 5.00304 64.0572 5.00003 64.7034C4.99702 65.3496 5.24624 65.9714 5.69469 66.4367C6.14313 66.9019 6.75541 67.1739 7.40127 67.1946L50.4696 67.3873H50.643C50.7798 67.3873 50.9165 67.3873 51.0533 67.3873C51.1477 67.3873 51.2459 67.3776 51.3403 67.368L51.4713 67.3526C52.3801 67.2496 53.2569 66.9562 54.0447 66.4916C55.5764 65.5898 56.692 64.1217 57.1504 62.4044C57.6089 60.687 57.3734 58.8583 56.4949 57.3131V57.3131Z" fill="#257799"/>
<defs>
<linearGradient id="paint0_linear" x1="44.3588" y1="33.8073" x2="69.9501" y2="33.9234" gradientUnits="userSpaceOnUse">
<stop stop-color="#0E3545"/>
<stop offset="1" stop-color="#1B5269"/>
</linearGradient>
<linearGradient id="paint1_linear" x1="120.522" y1="32.0355" x2="155.584" y2="32.0355" gradientUnits="userSpaceOnUse">
<stop stop-color="#0E3545"/>
<stop offset="1" stop-color="#1B5269"/>
</linearGradient>
<linearGradient id="paint2_linear" x1="121.866" y1="31.6802" x2="161.789" y2="31.6802" gradientUnits="userSpaceOnUse">
<stop stop-color="#0E3545"/>
<stop offset="1" stop-color="#1B5269"/>
</linearGradient>
<linearGradient id="paint3_linear" x1="114.597" y1="31.8609" x2="149.403" y2="31.8609" gradientUnits="userSpaceOnUse">
<stop stop-color="#0E3545"/>
<stop offset="1" stop-color="#1B5269"/>
</linearGradient>
<linearGradient id="paint4_linear" x1="108.585" y1="32.5843" x2="140.574" y2="32.5843" gradientUnits="userSpaceOnUse">
<stop stop-color="#0E3545"/>
<stop offset="1" stop-color="#1B5269"/>
</linearGradient>
<linearGradient id="paint5_linear" x1="129.099" y1="33.3968" x2="168.766" y2="33.3968" gradientUnits="userSpaceOnUse">
<stop stop-color="#0E3545"/>
<stop offset="1" stop-color="#1B5269"/>
</linearGradient>
<linearGradient id="paint6_linear" x1="121.3" y1="31.8639" x2="161.223" y2="31.8639" gradientUnits="userSpaceOnUse">
<stop stop-color="#0E3545"/>
<stop offset="1" stop-color="#1B5269"/>
</linearGradient>
<linearGradient id="paint7_linear" x1="122.36" y1="32.8257" x2="157.933" y2="32.8257" gradientUnits="userSpaceOnUse">
<stop stop-color="#0E3545"/>
<stop offset="1" stop-color="#1B5269"/>
</linearGradient>
<linearGradient id="paint8_linear" x1="143.508" y1="31.6755" x2="194.692" y2="31.6755" gradientUnits="userSpaceOnUse">
<stop stop-color="#0E3545"/>
<stop offset="1" stop-color="#1B5269"/>
</linearGradient>
<linearGradient id="paint9_linear" x1="109.702" y1="32.0565" x2="140.923" y2="32.0565" gradientUnits="userSpaceOnUse">
<stop stop-color="#0E3545"/>
<stop offset="1" stop-color="#1B5269"/>
</linearGradient>
<linearGradient id="paint10_linear" x1="130.463" y1="32.5647" x2="173.968" y2="32.5647" gradientUnits="userSpaceOnUse">
<stop stop-color="#0E3545"/>
<stop offset="1" stop-color="#1B5269"/>
</linearGradient>
<linearGradient id="paint11_linear" x1="119.607" y1="32.4016" x2="156.459" y2="32.4016" gradientUnits="userSpaceOnUse">
<stop stop-color="#0E3545"/>
<stop offset="1" stop-color="#1B5269"/>
</linearGradient>
<linearGradient id="paint12_linear" x1="139.786" y1="31.4883" x2="188.154" y2="31.4883" gradientUnits="userSpaceOnUse">
<stop stop-color="#0E3545"/>
<stop offset="1" stop-color="#1B5269"/>
</linearGradient>
<linearGradient id="paint13_linear" x1="130.552" y1="31.6287" x2="172.523" y2="31.6287" gradientUnits="userSpaceOnUse">
<stop stop-color="#0E3545"/>
<stop offset="1" stop-color="#1B5269"/>
</linearGradient>
<linearGradient id="paint14_linear" x1="111.503" y1="32.1799" x2="143.493" y2="32.1799" gradientUnits="userSpaceOnUse">
<stop stop-color="#0E3545"/>
<stop offset="1" stop-color="#1B5269"/>
</linearGradient>
<linearGradient id="paint15_linear" x1="127.515" y1="36.102" x2="165.646" y2="36.102" gradientUnits="userSpaceOnUse">
<stop stop-color="#0E3545"/>
<stop offset="1" stop-color="#1B5269"/>
</linearGradient>
<linearGradient id="paint16_linear" x1="2584.03" y1="2684.41" x2="4227.79" y2="2684.41" gradientUnits="userSpaceOnUse">
<stop stop-color="#0E3545"/>
<stop offset="1" stop-color="#1B5269"/>
</linearGradient>
<linearGradient id="paint17_linear" x1="73.0473" y1="35.3389" x2="82.7723" y2="35.3389" gradientUnits="userSpaceOnUse">
<stop stop-color="#0E3545"/>
<stop offset="1" stop-color="#1B5269"/>
</linearGradient>
<linearGradient id="paint18_linear" x1="131.867" y1="34.4855" x2="173.07" y2="34.4855" gradientUnits="userSpaceOnUse">
<stop stop-color="#0E3545"/>
<stop offset="1" stop-color="#1B5269"/>
</linearGradient>
<linearGradient id="paint19_linear" x1="109.815" y1="70.5724" x2="147.947" y2="70.5724" gradientUnits="userSpaceOnUse">
<stop stop-color="#0E3545"/>
<stop offset="1" stop-color="#1B5269"/>
</linearGradient>
<linearGradient id="paint20_linear" x1="92.7682" y1="33.558" x2="114.777" y2="33.558" gradientUnits="userSpaceOnUse">
<stop stop-color="#0E3545"/>
<stop offset="1" stop-color="#1B5269"/>
</linearGradient>
<linearGradient id="paint21_linear" x1="139.35" y1="32.0796" x2="188.23" y2="32.0796" gradientUnits="userSpaceOnUse">
<stop stop-color="#0E3545"/>
<stop offset="1" stop-color="#1B5269"/>
</linearGradient>
<linearGradient id="paint22_linear" x1="79.7427" y1="34.5039" x2="93.5625" y2="34.5039" gradientUnits="userSpaceOnUse">
<stop stop-color="#0E3545"/>
<stop offset="1" stop-color="#1B5269"/>
</linearGradient>
<linearGradient id="paint23_linear" x1="7008.43" y1="4651.62" x2="10155.4" y2="1938.71" gradientUnits="userSpaceOnUse">
<stop stop-color="#0E3545"/>
<stop offset="1" stop-color="#1B5269"/>
</linearGradient>
<linearGradient id="paint24_linear" x1="247.139" y1="92.4661" x2="254.489" y2="63.0634" gradientUnits="userSpaceOnUse">
<stop stop-color="#0E3545"/>
<stop offset="1" stop-color="#1B5269"/>
</linearGradient>
<linearGradient id="paint25_linear" x1="180.97" y1="78.2804" x2="183.318" y2="65.0526" gradientUnits="userSpaceOnUse">
<stop stop-color="#0E3545"/>
<stop offset="1" stop-color="#1B5269"/>
</linearGradient>
<linearGradient id="paint26_linear" x1="129.477" y1="70.8563" x2="129.944" y2="66.5984" gradientUnits="userSpaceOnUse">
<stop stop-color="#0E3545"/>
<stop offset="1" stop-color="#1B5269"/>
</linearGradient>
</defs>
</svg>
