<svg width="100" height="100" viewBox="0 0 100 100" fill="none" xmlns="http://www.w3.org/2000/svg">
<g clip-path="url(#clip0)">
<path d="M69.0402 41.9394C69.1326 42.0017 69.2251 42.0619 69.3133 42.1286C69.2251 42.0619 69.1326 42.0017 69.0402 41.9394Z" fill="url(#paint0_linear)"/>
<path d="M68.6272 41.6705C68.5562 41.6297 68.4831 41.5974 68.4121 41.5587C68.511 41.6124 68.61 41.6641 68.7067 41.7221C68.6788 41.7049 68.653 41.6856 68.6272 41.6705Z" fill="url(#paint1_linear)"/>
<path d="M61.5477 41.5264C61.6596 41.4684 61.7628 41.4103 61.8832 41.3565C61.7692 41.4103 61.6574 41.4684 61.5477 41.5264Z" fill="url(#paint2_linear)"/>
<path d="M62.238 41.206C62.3348 41.1673 62.4316 41.1286 62.5305 41.0941C62.4316 41.1286 62.3348 41.1673 62.238 41.206Z" fill="url(#paint3_linear)"/>
<path d="M60.3691 42.3028C60.4573 42.2318 60.5455 42.1587 60.638 42.0877C60.5519 42.1565 60.4573 42.2318 60.3691 42.3028Z" fill="url(#paint4_linear)"/>
<path d="M70.0637 42.778C70.1777 42.8898 70.2917 42.9931 70.397 43.1221C70.2917 43.0038 70.1777 42.8898 70.0637 42.778Z" fill="url(#paint5_linear)"/>
<path d="M60.9155 41.9028C61.0252 41.8296 61.1306 41.7565 61.251 41.6877C61.137 41.763 61.0252 41.8296 60.9155 41.9028Z" fill="url(#paint6_linear)"/>
<path d="M69.5841 42.3458C69.6852 42.4275 69.7863 42.5092 69.883 42.5974C69.7841 42.5092 69.683 42.4275 69.5841 42.3458Z" fill="url(#paint7_linear)"/>
<path d="M66.3369 40.8146C66.4788 40.8426 66.6229 40.8749 66.767 40.9093C66.6208 40.8727 66.4788 40.8426 66.3369 40.8146Z" fill="url(#paint8_linear)"/>
<path d="M62.9369 40.9651C63.0251 40.9415 63.1111 40.9157 63.1993 40.8942C63.1111 40.9157 63.0251 40.9415 62.9369 40.9651Z" fill="url(#paint9_linear)"/>
<path d="M64.9821 40.6877C65.1046 40.6877 65.2251 40.6877 65.3476 40.6985C65.2251 40.6877 65.1046 40.6877 64.9821 40.6877Z" fill="url(#paint10_linear)"/>
<path d="M64.3088 40.7114C64.4121 40.7006 64.5239 40.6942 64.6185 40.6877C64.5131 40.6877 64.4228 40.7006 64.3088 40.7114Z" fill="url(#paint11_linear)"/>
<path d="M67.0249 40.9845C67.1604 41.0254 67.298 41.0684 67.4313 41.1157C67.2959 41.0684 67.1604 41.0254 67.0249 40.9845Z" fill="url(#paint12_linear)"/>
<path d="M67.7218 41.2318C67.8401 41.2791 67.9584 41.3286 68.0745 41.3845C67.9584 41.3329 67.8401 41.2791 67.7218 41.2318Z" fill="url(#paint13_linear)"/>
<path d="M63.6272 40.8039C63.7175 40.7867 63.8078 40.7695 63.896 40.7566L63.6272 40.8039Z" fill="url(#paint14_linear)"/>
<path d="M70.9368 43.8124C71.0486 43.9737 71.1518 44.1393 71.2572 44.3135C71.1583 44.1414 71.0507 43.9758 70.9368 43.8124Z" fill="url(#paint15_linear)"/>
<path d="M58.6768 44.2554C58.6768 44.2705 58.6596 44.2812 58.651 44.2941L51.0726 57.2874L57.251 68.1646C58.2305 69.8893 58.4926 71.9299 57.9809 73.8462C57.4691 75.7624 56.2245 77.4007 54.5156 78.4074C53.6361 78.9261 52.6571 79.2537 51.6425 79.3687C52.7777 79.2485 53.8686 78.8629 54.8272 78.2431C55.7858 77.6234 56.5852 76.7868 57.1607 75.801L64.8853 62.5604L58.6166 51.5886C57.9772 50.4701 57.6459 49.2021 57.6565 47.9139C57.667 46.6256 58.0191 45.3632 58.6768 44.2554Z" fill="#363636"/>
<path d="M58.9993 43.7602L59.0806 43.6425L58.9993 43.7602Z" fill="url(#paint16_linear)"/>
<path d="M70.511 43.2683C70.6314 43.4103 70.7475 43.5522 70.8572 43.6984C70.7497 43.5458 70.6314 43.4017 70.511 43.2683Z" fill="url(#paint17_linear)"/>
<path d="M51.4963 79.3966C51.3888 79.4074 51.2813 79.4117 51.1759 79.4181C51.2813 79.3966 51.3888 79.3966 51.4963 79.3966Z" fill="url(#paint18_linear)"/>
<path d="M59.8832 42.732C59.9431 42.6721 60.003 42.61 60.0672 42.5522C60.003 42.61 59.9431 42.6721 59.8832 42.732Z" fill="url(#paint19_linear)"/>
<path d="M65.6572 40.7157C65.7949 40.7307 65.9303 40.7458 66.068 40.7673C65.9282 40.7458 65.7949 40.7286 65.6572 40.7157Z" fill="url(#paint20_linear)"/>
<path d="M59.4296 43.2095C59.4702 43.1646 59.5066 43.1175 59.5451 43.0726C59.5066 43.1175 59.4766 43.1646 59.4296 43.2095Z" fill="url(#paint21_linear)"/>
<path d="M96.6202 41.7866C95.793 41.3038 94.8787 40.9886 93.9297 40.8593C92.9806 40.7299 92.0154 40.7888 91.0891 41.0327C90.1628 41.2765 89.2937 41.7005 88.5313 42.2804C87.769 42.8603 87.1284 43.5848 86.6462 44.4124L78.9044 57.6874L85.1581 68.6312C86.1174 70.311 86.3704 72.303 85.8614 74.1693C85.3525 76.0356 84.1234 77.6234 82.4441 78.5837C82.2291 78.702 82.0269 78.7988 81.814 78.902C83.2161 78.2854 84.3868 77.2405 85.1581 75.9171L99.2459 51.7628C100.221 50.0916 100.492 48.1018 99.9992 46.2309C99.5068 44.36 98.2913 42.7613 96.6202 41.7866Z" fill="#363636"/>
<path d="M81.6937 78.9515C81.5345 79.0203 81.3711 79.0827 81.2076 79.1386C81.3732 79.0827 81.5345 79.0203 81.6937 78.9515Z" fill="url(#paint22_linear)"/>
<path d="M80.8914 79.2397L80.5925 79.3214L80.8914 79.2397Z" fill="url(#paint23_linear)"/>
<path d="M80.1208 79.4224L79.9689 79.4481L80.1208 79.4224Z" fill="url(#paint24_linear)"/>
<path d="M85.1557 68.6312L78.9021 57.6874L71.2807 44.3436C71.2807 44.3285 71.2635 44.3177 71.2571 44.3048C71.156 44.1307 71.042 43.9651 70.9367 43.8038L70.8571 43.6877C70.7474 43.535 70.6313 43.393 70.5109 43.2576C70.4722 43.2124 70.4356 43.1629 70.3969 43.1199C70.2915 42.9995 70.1818 42.8877 70.0636 42.7758C70.0034 42.7156 69.9431 42.6533 69.8808 42.5952C69.784 42.507 69.6829 42.4253 69.5819 42.3436C69.4808 42.2619 69.4055 42.1952 69.313 42.1285C69.2206 42.0619 69.1324 42.0017 69.0399 41.9393C68.9475 41.8769 68.8249 41.7888 68.7045 41.7243C68.584 41.6597 68.5088 41.6146 68.4098 41.5608C68.3109 41.5071 68.1948 41.4404 68.0744 41.3866C67.9539 41.3329 67.84 41.2812 67.7217 41.2339C67.6034 41.1866 67.5281 41.1544 67.4314 41.1178C67.298 41.0705 67.1604 41.0275 67.0249 40.9866L66.7626 40.9028C66.6228 40.8684 66.4787 40.8361 66.3325 40.8081C66.2421 40.7909 66.154 40.7737 66.0636 40.7608C65.926 40.7393 65.7905 40.7243 65.6529 40.7092L65.3475 40.6877C65.225 40.6877 65.1045 40.6877 64.9819 40.677C64.8594 40.6662 64.7389 40.677 64.6185 40.677C64.4981 40.677 64.4035 40.6899 64.3088 40.7006C64.1655 40.7107 64.0278 40.7257 63.8959 40.7458C63.8078 40.7587 63.7175 40.7759 63.6271 40.7931C63.4852 40.8189 63.3411 40.849 63.197 40.8834C63.1089 40.9049 63.0228 40.9307 62.9347 40.9544C62.7992 40.9952 62.6637 41.0361 62.5282 41.0834C62.4293 41.1178 62.3325 41.1565 62.2358 41.1952C62.139 41.2339 61.9992 41.292 61.8809 41.3458C61.7627 41.3995 61.6659 41.4576 61.5455 41.5157C61.4723 41.5544 61.3992 41.5866 61.3304 41.6275C61.3025 41.6425 61.2788 41.6619 61.2508 41.6769C61.1347 41.7458 61.025 41.8189 60.9154 41.892C60.8057 41.9651 60.7283 42.0146 60.6379 42.0791C60.5476 42.1436 60.4573 42.221 60.3691 42.2941C60.281 42.3672 60.1648 42.4576 60.0681 42.5436C59.9713 42.6296 59.9433 42.664 59.8831 42.7242C59.767 42.8361 59.653 42.9393 59.5455 43.064C59.5068 43.1092 59.4702 43.1565 59.4294 43.2016C59.3089 43.3436 59.1907 43.4855 59.081 43.6317L58.9993 43.75C58.8853 43.9113 58.7842 44.0747 58.6767 44.2446C58.019 45.3524 57.667 46.6148 57.6564 47.9031C57.6458 49.1914 57.9771 50.4594 58.6165 51.5778L64.8852 62.5453L72.4893 75.8548C73.1683 77.0432 74.1683 78.0164 75.3747 78.6629C76.581 79.3095 77.9451 79.6032 79.3107 79.5106H79.3537C79.5558 79.4977 79.758 79.474 79.9601 79.4418L80.1128 79.416C80.2741 79.388 80.4333 79.3536 80.5924 79.3149L80.8913 79.2332C80.9967 79.2009 81.1064 79.1687 81.2074 79.1321C81.3709 79.0762 81.5343 79.0138 81.6934 78.945L81.8117 78.8955C82.0268 78.7988 82.2418 78.6956 82.4418 78.5773C84.1193 77.617 85.3472 76.0303 85.856 74.1656C86.3649 72.3009 86.113 70.3105 85.1557 68.6312Z" fill="black"/>
<path d="M57.251 68.1646L51.0726 57.2874L43.6728 44.2619C43.6556 44.2296 43.6362 44.1995 43.6169 44.1672C42.966 43.0572 42.0336 42.1386 40.9141 41.5043C39.7945 40.8699 38.5274 40.5423 37.2407 40.5544L19.727 40.4727C19.006 40.491 18.3205 40.7899 17.8164 41.3058C17.3123 41.8217 17.0293 42.5139 17.0276 43.2352C17.026 43.9565 17.3057 44.65 17.8074 45.1682C18.3091 45.6864 18.9932 45.9885 19.7141 46.0102L24.8323 46.0339C25.2023 46.0254 25.5703 46.0912 25.9145 46.2274C26.2587 46.3636 26.5721 46.5674 26.8362 46.8267C27.1003 47.0861 27.3097 47.3957 27.4521 47.7374C27.5945 48.079 27.667 48.4458 27.6653 48.8159C27.6636 49.186 27.5877 49.5521 27.4421 49.8924C27.2965 50.2327 27.0842 50.5404 26.8177 50.7972C26.5512 51.0541 26.2359 51.255 25.8905 51.3879C25.545 51.5209 25.1764 51.5833 24.8065 51.5714L7.99177 51.4961C7.6269 51.4944 7.26527 51.5646 6.92753 51.7027C6.58979 51.8407 6.28254 52.044 6.02334 52.3008C5.76414 52.5576 5.55806 52.8629 5.41687 53.1994C5.27567 53.5358 5.20213 53.8968 5.20043 54.2617C5.19874 54.6265 5.26893 54.9882 5.40699 55.3259C5.54505 55.6636 5.74829 55.9709 6.00509 56.2301C6.2619 56.4893 6.56724 56.6954 6.90369 56.8366C7.24014 56.9778 7.6011 57.0513 7.96597 57.053L33.9246 57.1691C34.2946 57.1607 34.6626 57.2265 35.0068 57.3627C35.351 57.4989 35.6644 57.7026 35.9285 57.962C36.1926 58.2213 36.402 58.531 36.5444 58.8726C36.6868 59.2143 36.7593 59.581 36.7576 59.9512C36.7558 60.3213 36.68 60.6873 36.5344 61.0276C36.3888 61.368 36.1765 61.6756 35.91 61.9325C35.6435 62.1894 35.3282 62.3902 34.9828 62.5232C34.6373 62.6562 34.2687 62.7185 33.8988 62.7066L15.7013 62.6228C15.3364 62.6211 14.9748 62.6913 14.6371 62.8293C14.2993 62.9674 13.9921 63.1706 13.7329 63.4274C13.2094 63.9461 12.9134 64.6514 12.91 65.3883C12.9065 66.1252 13.196 66.8333 13.7146 67.3567C14.2333 67.8802 14.9386 68.1762 15.6755 68.1797L23.7377 68.2162C24.1078 68.2076 24.4758 68.2733 24.82 68.4093C25.1643 68.5453 25.4778 68.749 25.742 69.0082C26.0062 69.2675 26.2158 69.577 26.3583 69.9187C26.5009 70.2603 26.5735 70.627 26.5719 70.9971C26.5704 71.3673 26.4946 71.7334 26.3491 72.0738C26.2037 72.4141 25.9915 72.7219 25.725 72.9789C25.4586 73.2359 25.1434 73.4368 24.798 73.5699C24.4526 73.703 24.084 73.7655 23.714 73.7537L2.46715 73.6591C1.74591 73.6756 1.05955 73.9728 0.554069 74.4875C0.0485913 75.0023 -0.23611 75.6939 -0.239472 76.4153C-0.242834 77.1368 0.0354088 77.831 0.536067 78.3504C1.03673 78.8699 1.72029 79.1735 2.44135 79.1966L50.5243 79.4117H50.7178C50.8705 79.4117 51.0232 79.4117 51.1759 79.4117C51.2812 79.4117 51.3909 79.4009 51.4963 79.3902L51.6425 79.373C52.6571 79.258 53.6361 78.9304 54.5156 78.4117C56.2256 77.4049 57.4711 75.7659 57.9829 73.8486C58.4947 71.9314 58.2318 69.8897 57.251 68.1646Z" fill="black"/>
</g>
<defs>
<linearGradient id="paint0_linear" x1="43.7021" y1="41.922" x2="72.273" y2="42.0516" gradientUnits="userSpaceOnUse">
<stop stop-color="#0E3545"/>
<stop offset="1" stop-color="#1B5269"/>
</linearGradient>
<linearGradient id="paint1_linear" x1="128.733" y1="39.9439" x2="167.877" y2="39.9439" gradientUnits="userSpaceOnUse">
<stop stop-color="#0E3545"/>
<stop offset="1" stop-color="#1B5269"/>
</linearGradient>
<linearGradient id="paint2_linear" x1="130.233" y1="39.5472" x2="174.805" y2="39.5472" gradientUnits="userSpaceOnUse">
<stop stop-color="#0E3545"/>
<stop offset="1" stop-color="#1B5269"/>
</linearGradient>
<linearGradient id="paint3_linear" x1="122.118" y1="39.7489" x2="160.976" y2="39.7489" gradientUnits="userSpaceOnUse">
<stop stop-color="#0E3545"/>
<stop offset="1" stop-color="#1B5269"/>
</linearGradient>
<linearGradient id="paint4_linear" x1="115.406" y1="40.5566" x2="151.12" y2="40.5566" gradientUnits="userSpaceOnUse">
<stop stop-color="#0E3545"/>
<stop offset="1" stop-color="#1B5269"/>
</linearGradient>
<linearGradient id="paint5_linear" x1="138.308" y1="41.4636" x2="182.594" y2="41.4636" gradientUnits="userSpaceOnUse">
<stop stop-color="#0E3545"/>
<stop offset="1" stop-color="#1B5269"/>
</linearGradient>
<linearGradient id="paint6_linear" x1="129.601" y1="39.7523" x2="174.172" y2="39.7523" gradientUnits="userSpaceOnUse">
<stop stop-color="#0E3545"/>
<stop offset="1" stop-color="#1B5269"/>
</linearGradient>
<linearGradient id="paint7_linear" x1="130.785" y1="40.8261" x2="170.5" y2="40.8261" gradientUnits="userSpaceOnUse">
<stop stop-color="#0E3545"/>
<stop offset="1" stop-color="#1B5269"/>
</linearGradient>
<linearGradient id="paint8_linear" x1="154.395" y1="39.542" x2="211.538" y2="39.542" gradientUnits="userSpaceOnUse">
<stop stop-color="#0E3545"/>
<stop offset="1" stop-color="#1B5269"/>
</linearGradient>
<linearGradient id="paint9_linear" x1="116.653" y1="39.9673" x2="151.51" y2="39.9673" gradientUnits="userSpaceOnUse">
<stop stop-color="#0E3545"/>
<stop offset="1" stop-color="#1B5269"/>
</linearGradient>
<linearGradient id="paint10_linear" x1="139.831" y1="40.5346" x2="188.402" y2="40.5346" gradientUnits="userSpaceOnUse">
<stop stop-color="#0E3545"/>
<stop offset="1" stop-color="#1B5269"/>
</linearGradient>
<linearGradient id="paint11_linear" x1="127.711" y1="40.3525" x2="168.854" y2="40.3525" gradientUnits="userSpaceOnUse">
<stop stop-color="#0E3545"/>
<stop offset="1" stop-color="#1B5269"/>
</linearGradient>
<linearGradient id="paint12_linear" x1="150.239" y1="39.3329" x2="204.239" y2="39.3329" gradientUnits="userSpaceOnUse">
<stop stop-color="#0E3545"/>
<stop offset="1" stop-color="#1B5269"/>
</linearGradient>
<linearGradient id="paint13_linear" x1="139.93" y1="39.4897" x2="186.788" y2="39.4897" gradientUnits="userSpaceOnUse">
<stop stop-color="#0E3545"/>
<stop offset="1" stop-color="#1B5269"/>
</linearGradient>
<linearGradient id="paint14_linear" x1="118.664" y1="40.1051" x2="154.378" y2="40.1051" gradientUnits="userSpaceOnUse">
<stop stop-color="#0E3545"/>
<stop offset="1" stop-color="#1B5269"/>
</linearGradient>
<linearGradient id="paint15_linear" x1="136.54" y1="44.4838" x2="179.111" y2="44.4838" gradientUnits="userSpaceOnUse">
<stop stop-color="#0E3545"/>
<stop offset="1" stop-color="#1B5269"/>
</linearGradient>
<linearGradient id="paint16_linear" x1="75.6467" y1="43.6319" x2="86.4495" y2="43.6319" gradientUnits="userSpaceOnUse">
<stop stop-color="#0E3545"/>
<stop offset="1" stop-color="#1B5269"/>
</linearGradient>
<linearGradient id="paint17_linear" x1="141.399" y1="42.6791" x2="187.399" y2="42.6791" gradientUnits="userSpaceOnUse">
<stop stop-color="#0E3545"/>
<stop offset="1" stop-color="#1B5269"/>
</linearGradient>
<linearGradient id="paint18_linear" x1="116.78" y1="82.9678" x2="159.351" y2="82.9678" gradientUnits="userSpaceOnUse">
<stop stop-color="#0E3545"/>
<stop offset="1" stop-color="#1B5269"/>
</linearGradient>
<linearGradient id="paint19_linear" x1="97.5577" y1="41.6482" x2="122.006" y2="41.6482" gradientUnits="userSpaceOnUse">
<stop stop-color="#0E3545"/>
<stop offset="1" stop-color="#1B5269"/>
</linearGradient>
<linearGradient id="paint20_linear" x1="149.753" y1="39.9931" x2="204.325" y2="39.9931" gradientUnits="userSpaceOnUse">
<stop stop-color="#0E3545"/>
<stop offset="1" stop-color="#1B5269"/>
</linearGradient>
<linearGradient id="paint21_linear" x1="83.0865" y1="42.7015" x2="98.4379" y2="42.7015" gradientUnits="userSpaceOnUse">
<stop stop-color="#0E3545"/>
<stop offset="1" stop-color="#1B5269"/>
</linearGradient>
<linearGradient id="paint22_linear" x1="270.092" y1="107.411" x2="278.298" y2="74.5844" gradientUnits="userSpaceOnUse">
<stop stop-color="#0E3545"/>
<stop offset="1" stop-color="#1B5269"/>
</linearGradient>
<linearGradient id="paint23_linear" x1="196.219" y1="91.5732" x2="198.841" y2="76.8053" gradientUnits="userSpaceOnUse">
<stop stop-color="#0E3545"/>
<stop offset="1" stop-color="#1B5269"/>
</linearGradient>
<linearGradient id="paint24_linear" x1="138.436" y1="83.2652" x2="138.955" y2="78.5354" gradientUnits="userSpaceOnUse">
<stop stop-color="#0E3545"/>
<stop offset="1" stop-color="#1B5269"/>
</linearGradient>
<clipPath id="clip0">
<rect width="100" height="100" fill="white"/>
</clipPath>
</defs>
</svg>
